# xmcd
#
# Track frame offsets: 
#        150
#        12104
#        27168
#        40524
#        50895
#        60718
#        78379
#        99594
#        115145
#        130850
#        141364
#        155047
#        169631
#        181161
#        192680
#        206533
#        217591
#        232617
#        247879
#        259397
#        273503
#
# Disc length: 3789 seconds
#
# Revision: 0
# Processed by: cddbd v1.5.2PL0 Copyright (c) Steve Scherf et al.
# Submitted via: ExactAudioCopy v0.95a4
#
DISCID=1f0ecb15
DTITLE=Various Artist - Romantická tváø country
DYEAR=2010
DGENRE=Country
TTITLE0=Gil Hodgson/Welcome To My World
TTITLE1=Kenny Rogers/Can't Help Falling In Love
TTITLE2=John Baker/Take These Chains From My Heart
TTITLE3=Bobby Sykes and Lou Darnell/Bouquet Of Roses
TTITLE4=Ray Price/Make The World Go Away
TTITLE5=The Larry Sinclair Singers/Empty Saddles
TTITLE6=The Michaels/Shenandoah
TTITLE7=The Cattlemen/Cool Water
TTITLE8=Bobby Sykes/Cold Cold Heart
TTITLE9=Jimmie Rodgers/Kisses Sweeter Than Wine
TTITLE10=Brenda Lee/Nobody Wins
TTITLE11=Bobby Sykes/Born To Lose
TTITLE12=Glen Campbell/It's All In The Game
TTITLE13=Sammi Smith/Help Me Make It Throught The Night
TTITLE14=The Kendalls/Crying Time
TTITLE15=Patsy Cline/A Stranger In My Arms
TTITLE16=Roy Clark/Yesterday, When I Was Young
TTITLE17=Dave Kelsey/Little Green Apples
TTITLE18=Freddy Fender/Before The Next Teardrop Falls
TTITLE19=Brenda Lee/The End Of The World
TTITLE20=Billie Jo Spears/I'm So Lonesome I Could Cry
EXTD=
EXTT0=
EXTT1=
EXTT2=
EXTT3=
EXTT4=
EXTT5=
EXTT6=
EXTT7=
EXTT8=
EXTT9=
EXTT10=
EXTT11=
EXTT12=
EXTT13=
EXTT14=
EXTT15=
EXTT16=
EXTT17=
EXTT18=
EXTT19=
EXTT20=
PLAYORDER=
